PathFileType  4	(X/Y/Z)
DataRate	CameraRate	NumFrames	NumMarkers	Units	OrigDataRate	OrigDataStartFrame	OrigNumFrames
  100.0 	  100.0 	    11 	     42 	mm 	  100.0 	      149 	    237
Frame#	Time	R.Shoulder			R.Clavicle			R.Bicep			R.Elbow			R.Forearm			R.Wrist			L.Shoulder			L.Clavicle			L.Scapula			L.Bicep			L.Elbow			L.Forearm			L.Wrist			R.ASIS			R.Iliac			S2			L.Iliac			L.ASIS			R.TH1			R.TH2			R.TH3			R.Knee			R.SH1			R.SH2			R.SH3			R.SH4			R.Ankle			R.Heel			R.MT5			L.TH1			L.TH2			L.TH3			L.TH4			L.Knee			L.SH1			L.SH2			L.SH3			L.Ankle			L.Heel			L.MT5			R_HJC			L_HJC			
		X1	Y1	Z1	X2	Y2	Z2	X3	Y3	Z3	X4	Y4	Z4	X5	Y5	Z5	X6	Y6	Z6	X7	Y7	Z7	X8	Y8	Z8	X9	Y9	Z9	X10	Y10	Z10	X11	Y11	Z11	X12	Y12	Z12	X13	Y13	Z13	X14	Y14	Z14	X15	Y15	Z15	X16	Y16	Z16	X17	Y17	Z17	X18	Y18	Z18	X19	Y19	Z19	X20	Y20	Z20	X21	Y21	Z21	X22	Y22	Z22	X23	Y23	Z23	X24	Y24	Z24	X25	Y25	Z25	X26	Y26	Z26	X27	Y27	Z27	X28	Y28	Z28	X29	Y29	Z29	X30	Y30	Z30	X31	Y31	Z31	X32	Y32	Z32	X33	Y33	Z33	X34	Y34	Z34	X35	Y35	Z35	X36	Y36	Z36	X37	Y37	Z37	X38	Y38	Z38	X39	Y39	Z39	X40	Y40	Z40	X41	Y41	Z41	X42	Y42	Z42	

149	1.48000	250.387	1414.438	0.383	319.864	1400.766	-157.801	265.118	1241.646	15.072	186.823	1109.140	59.029	271.441	982.778	60.128	262.385	879.639	100.885	210.218	1426.942	-385.306	324.041	1404.675	-223.575	110.551	1313.761	-244.365	267.415	1262.725	-389.450	219.257	1122.590	-441.443	318.163	1022.440	-427.385	339.334	907.749	-459.586	328.593	966.405	-58.873	226.141	1042.361	-38.696	138.267	968.407	-195.979	227.919	1022.816	-357.730	328.404	950.650	-333.342	382.938	743.529	-91.348	389.296	658.571	-106.410	282.989	632.544	-7.871	288.532	487.321	-53.207	337.608	346.257	-97.272	323.291	274.808	-107.806	237.797	355.952	-40.986	222.577	284.113	-52.310	237.875	96.833	-109.261	175.098	55.673	-173.093	359.035	35.785	-77.805	382.226	764.161	-359.555	410.949	684.733	-349.666	242.048	710.925	-382.832	274.199	629.060	-370.942	345.170	498.758	-363.320	294.927	378.656	-348.878	236.866	330.392	-341.557	162.333	417.540	-344.464	39.977	258.753	-314.306	-26.163	280.181	-243.508	51.771	125.640	-348.272	257.556	868.284	-86.459	254.981	855.932	-295.887
150	1.49000	262.894	1416.152	0.578	331.163	1402.136	-157.974	278.996	1243.538	14.962	202.548	1110.426	60.433	288.415	984.880	59.425	281.452	881.665	100.278	219.975	1428.117	-384.691	334.976	1405.942	-223.739	121.421	1315.118	-242.903	275.661	1263.468	-389.600	224.877	1123.772	-440.686	322.092	1021.666	-428.483	340.031	906.319	-460.897	338.942	966.622	-57.497	236.819	1043.084	-37.624	148.801	970.179	-195.465	238.714	1025.220	-356.655	338.947	952.971	-331.883	390.980	742.222	-90.361	395.969	657.241	-105.711	288.512	632.664	-8.142	291.879	487.441	-53.186	339.730	345.881	-97.280	324.901	274.585	-107.835	239.895	356.515	-41.243	224.098	284.777	-52.628	238.112	97.108	-109.382	175.175	55.975	-173.255	359.091	35.767	-77.820	395.694	769.417	-359.026	426.276	690.733	-349.211	256.963	712.665	-382.641	291.017	631.693	-370.868	365.964	503.159	-362.570	319.418	381.651	-348.357	262.835	331.652	-341.156	185.716	416.555	-344.026	67.953	253.739	-314.261	0.323	272.134	-243.889	85.459	121.299	-348.331	267.607	869.137	-86.091	265.297	857.955	-295.588
151	1.50000	275.324	1417.710	0.756	342.443	1403.342	-158.114	292.878	1245.285	14.818	218.295	1111.564	61.822	305.421	986.905	58.755	300.635	883.623	99.645	229.768	1429.097	-384.071	345.916	1407.034	-223.862	132.246	1316.293	-241.522	283.829	1264.032	-389.814	230.315	1124.805	-439.946	325.826	1020.824	-429.643	340.530	904.913	-462.232	349.183	966.750	-55.964	247.277	1043.602	-36.617	159.304	971.801	-195.211	249.688	1027.499	-355.673	349.623	955.077	-330.259	399.011	740.840	-89.202	402.656	655.848	-104.861	293.921	632.730	-8.478	295.145	487.591	-53.215	341.799	345.513	-97.079	326.462	274.360	-107.688	241.775	357.135	-41.630	225.405	285.522	-53.071	238.370	97.393	-109.532	175.252	56.290	-173.458	359.153	35.751	-77.836	409.042	774.535	-358.235	441.393	696.602	-348.457	271.938	714.418	-382.771	307.771	634.344	-371.087	386.181	507.364	-361.862	343.640	384.316	-347.773	288.786	332.440	-340.654	208.824	414.710	-343.702	96.389	247.685	-314.169	27.380	262.802	-244.209	119.996	116.274	-348.316	277.515	869.838	-85.749	275.749	859.825	-295.310
152	1.51000	287.681	1419.081	0.924	353.715	1404.352	-158.215	306.757	1246.859	14.660	234.036	1112.533	63.194	322.440	988.829	58.110	319.900	885.496	98.988	239.613	1429.866	-383.457	356.876	1407.924	-223.940	143.042	1317.272	-240.231	291.948	1264.399	-390.068	235.613	1125.666	-439.223	329.407	1019.890	-430.853	340.867	903.510	-463.568	359.324	966.786	-54.306	257.526	1043.913	-35.698	169.771	973.222	-195.218	260.831	1029.595	-354.780	360.403	956.946	-328.515	407.020	739.380	-87.925	409.357	654.384	-103.901	299.268	632.752	-8.857	298.365	487.753	-53.291	343.863	345.154	-96.730	328.006	274.134	-107.424	243.548	357.792	-42.107	226.586	286.332	-53.577	238.653	97.678	-109.715	175.329	56.609	-173.692	359.219	35.732	-77.850	422.278	779.455	-357.156	456.303	702.268	-347.382	286.959	716.159	-383.200	324.456	636.962	-371.576	405.817	511.303	-361.193	367.579	386.622	-347.114	314.695	332.757	-340.044	231.704	412.007	-343.491	125.305	240.662	-314.021	55.094	252.247	-244.443	155.364	110.684	-348.236	287.311	870.374	-85.434	286.345	861.504	-295.052
153	1.52000	299.975	1420.236	1.082	364.988	1405.143	-158.280	320.614	1248.237	14.519	249.744	1113.316	64.545	339.461	990.630	57.477	339.212	887.265	98.299	249.527	1430.412	-382.857	367.871	1408.591	-223.977	153.830	1318.044	-239.033	300.044	1264.557	-390.339	240.824	1126.342	-438.519	332.869	1018.847	-432.098	341.077	902.096	-464.880	369.375	966.716	-52.572	267.583	1044.013	-34.886	180.224	974.388	-195.454	272.129	1031.457	-353.967	371.264	958.551	-326.706	415.001	737.838	-86.584	416.072	652.843	-102.873	304.596	632.734	-9.260	301.593	487.898	-53.402	345.973	344.795	-96.315	329.573	273.902	-107.119	245.341	358.461	-42.621	227.744	287.176	-54.088	238.965	97.963	-109.930	175.412	56.927	-173.939	359.275	35.703	-77.860	435.409	784.106	-355.788	471.008	707.647	-345.990	301.991	717.856	-383.888	341.045	639.493	-372.295	424.873	514.917	-360.557	391.231	388.557	-346.378	340.544	332.624	-339.329	254.414	408.458	-343.387	154.732	232.748	-313.808	83.556	240.548	-244.566	191.530	104.647	-348.099	297.034	870.727	-85.150	297.091	862.953	-294.813
154	1.53000	312.215	1421.149	1.231	376.271	1405.697	-158.312	334.420	1249.401	14.422	265.407	1113.893	65.860	356.478	992.285	56.844	358.536	888.917	97.572	259.520	1430.727	-382.277	378.915	1409.020	-223.978	164.631	1318.602	-237.923	308.143	1264.493	-390.607	246.007	1126.832	-437.839	336.246	1017.686	-433.359	341.197	900.657	-466.151	379.354	966.521	-50.815	277.481	1043.898	-34.192	190.695	975.249	-195.861	283.562	1033.039	-353.231	382.184	959.863	-324.887	422.951	736.208	-85.231	422.800	651.222	-101.822	309.949	632.676	-9.666	304.888	487.992	-53.532	348.176	344.425	-95.922	331.198	273.659	-106.844	247.264	359.113	-43.127	228.981	288.019	-54.563	239.303	98.252	-110.164	175.507	57.242	-174.183	359.308	35.655	-77.859	448.440	788.404	-354.152	485.506	712.644	-344.309	316.992	719.469	-384.782	357.493	641.880	-373.186	443.343	518.161	-359.948	414.592	390.127	-345.570	366.323	332.072	-338.517	277.011	404.083	-343.389	184.706	224.026	-313.523	112.847	227.810	-244.562	228.453	98.289	-347.912	306.732	870.881	-84.896	307.987	864.132	-294.591
155	1.54000	324.410	1421.802	1.372	387.577	1406.009	-158.313	348.128	1250.332	14.379	281.027	1114.246	67.121	373.489	993.779	56.193	377.846	890.446	96.796	269.606	1430.808	-381.721	390.018	1409.206	-223.954	175.459	1318.945	-236.899	316.271	1264.199	-390.855	251.221	1127.148	-437.180	339.572	1016.404	-434.613	341.264	899.185	-467.370	389.289	966.176	-49.089	287.267	1043.570	-33.619	201.207	975.773	-196.385	295.095	1034.305	-352.580	393.141	960.857	-323.114	430.874	734.485	-83.912	429.537	649.519	-100.797	315.367	632.580	-10.063	308.301	488.014	-53.670	350.506	344.033	-95.622	332.907	273.393	-106.652	249.390	359.725	-43.588	230.379	288.826	-54.982	239.664	98.549	-110.405	175.626	57.556	-174.410	359.304	35.587	-77.837	461.373	792.256	-352.286	499.786	717.165	-342.383	331.913	720.947	-385.822	373.738	644.061	-374.178	461.215	520.994	-359.355	437.649	391.343	-344.696	392.027	331.143	-337.620	299.551	398.907	-343.496	215.263	214.596	-313.165	143.029	214.166	-244.428	266.100	91.740	-347.679	316.446	870.819	-84.677	319.012	865.014	-294.389
156	1.55000	336.570	1422.187	1.507	398.915	1406.076	-158.289	361.693	1251.020	14.390	296.615	1114.365	68.307	390.489	995.102	55.512	397.122	891.850	95.956	279.794	1430.657	-381.192	401.191	1409.147	-223.911	186.323	1319.075	-235.962	324.444	1263.671	-391.069	256.514	1127.312	-436.538	342.889	1015.004	-435.838	341.317	897.680	-468.530	399.214	965.658	-47.444	296.999	1043.042	-33.160	211.767	975.960	-196.981	306.677	1035.232	-352.029	404.116	961.514	-321.443	438.784	732.668	-82.672	436.276	647.731	-99.846	320.889	632.441	-10.439	311.862	487.954	-53.813	352.971	343.614	-95.461	334.712	273.095	-106.574	251.738	360.280	-43.989	231.989	289.572	-55.347	240.041	98.856	-110.643	175.777	57.870	-174.619	359.258	35.499	-77.786	474.198	795.574	-350.237	513.824	721.121	-340.269	346.706	722.230	-386.936	389.709	645.969	-375.191	478.472	523.374	-358.769	460.372	392.220	-343.763	417.659	329.880	-336.650	322.077	392.962	-343.706	246.431	204.581	-312.746	174.151	199.772	-244.180	304.441	85.136	-347.407	326.205	870.540	-84.498	330.125	865.579	-294.211
157	1.56000	348.697	1422.305	1.635	410.296	1405.900	-158.249	375.105	1251.461	14.435	312.190	1114.253	69.403	407.467	996.252	54.790	416.349	893.129	95.036	290.087	1430.275	-380.690	412.437	1408.848	-223.856	197.236	1318.993	-235.116	332.683	1262.912	-391.243	261.929	1127.348	-435.906	346.230	1013.494	-437.013	341.387	896.148	-469.623	409.168	964.946	-45.915	306.741	1042.327	-32.801	222.379	975.830	-197.614	318.254	1035.806	-351.587	415.103	961.826	-319.924	446.692	730.757	-81.550	443.013	645.854	-99.011	326.543	632.256	-10.787	315.575	487.815	-53.962	355.555	343.168	-95.450	336.615	272.759	-106.618	254.281	360.775	-44.343	233.823	290.248	-55.680	240.428	99.165	-110.881	175.960	58.182	-174.819	359.175	35.392	-77.702	486.893	798.284	-348.063	527.588	724.435	-338.025	361.322	723.251	-388.051	405.325	647.534	-376.145	495.087	525.259	-358.172	482.723	392.773	-342.780	443.211	328.330	-335.627	344.618	386.283	-344.007	278.237	194.115	-312.284	206.256	184.794	-243.842	343.451	78.622	-347.102	336.035	870.042	-84.361	341.281	865.821	-294.061
158	1.57000	360.795	1422.163	1.752	421.725	1405.485	-158.203	388.388	1251.665	14.492	327.758	1113.923	70.402	424.409	997.234	54.018	435.511	894.290	94.025	300.484	1429.665	-380.216	423.753	1408.314	-223.795	208.210	1318.696	-234.366	341.005	1261.931	-391.382	267.493	1127.274	-435.288	349.619	1011.880	-438.124	341.503	894.602	-470.642	419.189	964.031	-44.533	316.556	1041.445	-32.523	233.050	975.415	-198.259	329.789	1036.021	-351.259	426.108	961.796	-318.601	454.606	728.748	-80.577	449.743	643.886	-98.319	332.348	632.015	-11.106	319.415	487.607	-54.119	358.228	342.690	-95.571	338.601	272.386	-106.768	256.963	361.213	-44.683	235.849	290.854	-56.008	240.819	99.467	-111.132	176.171	58.487	-175.021	359.078	35.272	-77.595	499.424	800.330	-345.829	541.035	727.039	-335.712	375.695	723.948	-389.094	420.499	648.685	-376.964	511.026	526.603	-357.553	504.656	393.022	-341.755	468.660	326.551	-334.571	367.182	378.916	-344.376	310.712	183.339	-311.801	239.381	169.406	-243.450	383.092	72.347	-346.772	345.962	869.334	-84.266	352.447	865.742	-293.942
159	1.58000	372.874	1421.771	1.849	433.203	1404.838	-158.158	401.585	1251.640	14.535	343.304	1113.392	71.300	441.297	998.058	53.194	454.596	895.342	92.914	310.982	1428.832	-379.782	435.134	1407.551	-223.738	219.250	1318.185	-233.720	349.431	1260.743	-391.501	273.220	1127.104	-434.689	353.072	1010.171	-439.164	341.696	893.055	-471.579	429.314	962.907	-43.319	326.506	1040.411	-32.310	243.795	974.744	-198.894	341.265	1035.876	-351.044	437.146	961.435	-317.507	462.529	726.628	-79.779	456.466	641.832	-97.784	338.311	631.710	-11.395	323.342	487.346	-54.293	360.949	342.176	-95.785	340.642	271.986	-106.996	259.707	361.604	-45.044	238.004	291.399	-56.362	241.210	99.752	-111.413	176.403	58.780	-175.236	359.007	35.149	-77.485	511.761	801.678	-343.616	554.121	728.876	-333.389	389.745	724.264	-389.993	435.145	649.358	-377.584	526.241	527.361	-356.900	526.110	392.990	-340.696	493.953	324.605	-333.505	389.763	370.925	-344.780	343.889	172.399	-311.328	273.565	153.798	-243.043	423.327	66.473	-346.426	356.015	868.426	-84.211	363.607	865.347	-293.859
